<?xml version="1.0" standalone="no"?>
<!DOCTYPE svg PUBLIC "-//W3C//DTD SVG 20010904//EN"
 "http://www.w3.org/TR/2001/REC-SVG-20010904/DTD/svg10.dtd">
<svg version="1.0" xmlns="http://www.w3.org/2000/svg"
 width="225.000000pt" height="225.000000pt" viewBox="0 0 225.000000 225.000000"
 preserveAspectRatio="xMidYMid meet">

<g transform="translate(0.000000,225.000000) scale(0.100000,-0.100000)"
fill="#000000" stroke="none">
<path d="M910 2131 c-385 -85 -674 -361 -783 -749 -18 -66 -21 -103 -21 -257
0 -198 11 -257 74 -408 93 -224 313 -444 537 -537 151 -63 210 -74 408 -74
153 0 191 3 257 21 189 53 333 136 469 272 136 136 219 280 272 469 31 113 31
401 0 514 -53 189 -136 333 -272 469 -136 136 -282 220 -469 271 -112 30 -354
35 -472 9z m346 -27 c30 -8 38 -75 18 -151 -23 -88 -45 -124 -107 -171 -31
-24 -69 -64 -83 -88 -30 -52 -55 -55 -87 -13 -15 21 -21 53 -28 150 -5 68 -11
130 -14 137 -3 7 -25 22 -50 33 -39 17 -45 24 -45 49 0 17 5 30 13 31 6 0 39
6 72 14 60 13 272 20 311 9z m-502 -131 c-8 -25 -14 -65 -14 -88 0 -40 2 -42
49 -64 27 -13 61 -33 76 -45 l28 -23 -19 -31 c-10 -18 -23 -32 -29 -32 -5 0
-44 21 -85 45 -41 25 -80 45 -87 45 -8 0 -22 -19 -32 -42 -14 -33 -30 -49 -65
-67 -56 -29 -73 -54 -54 -79 31 -41 148 -143 157 -137 6 3 11 23 11 44 0 54
25 81 85 92 38 7 53 6 69 -6 41 -30 84 -60 102 -71 17 -10 11 -18 -56 -91 -74
-79 -106 -103 -136 -103 -9 0 -47 -28 -85 -62 -69 -62 -72 -68 -93 -160 -8
-33 -26 -36 -51 -8 -13 14 -31 20 -62 20 -42 0 -45 -2 -63 -42 -36 -82 -36
-95 2 -118 18 -11 43 -20 55 -20 37 0 92 -32 112 -65 18 -31 21 -32 103 -37
96 -6 116 -14 173 -69 24 -22 85 -59 150 -90 122 -57 145 -73 145 -102 0 -11
-50 -70 -119 -142 -84 -86 -129 -140 -151 -184 -35 -71 -28 -70 -147 -15 l-73
33 0 55 c0 44 -7 68 -36 123 -20 37 -43 81 -52 97 -8 16 -15 47 -15 69 0 34 6
45 42 78 62 58 50 75 -126 178 -40 23 -76 35 -118 40 -76 8 -85 23 -78 130 7
97 -8 131 -76 169 -56 31 -56 30 -19 177 65 263 250 494 502 627 86 45 100 39
80 -29z m1075 -160 c118 -119 207 -275 253 -443 30 -112 33 -366 5 -470 -34
-129 -55 -174 -88 -189 -56 -25 -139 -156 -139 -219 0 -37 -83 -118 -194 -191
-80 -52 -113 -67 -124 -57 -3 4 -7 43 -10 89 -4 79 -3 84 28 130 l32 48 -28
145 c-23 117 -31 143 -43 139 -60 -23 -174 -11 -213 22 -9 8 -26 36 -37 63
-19 44 -20 53 -8 88 22 63 75 131 134 170 71 47 117 47 225 4 59 -24 105 -34
189 -42 141 -13 149 -17 150 -78 0 -26 4 -69 7 -96 l7 -48 32 40 c18 22 41 63
52 90 l20 49 -36 34 c-19 19 -46 53 -59 75 -21 36 -31 43 -68 48 -24 4 -52 13
-62 20 -16 12 -11 14 43 21 34 4 70 13 80 20 17 13 17 17 -12 70 -29 55 -31
56 -65 50 -63 -11 -70 -16 -94 -62 l-23 -46 -22 32 c-26 36 -44 35 -98 -6
l-33 -24 6 31 c6 30 6 30 -40 30 -46 0 -47 -1 -65 -44 -20 -44 -42 -56 -107
-56 -21 0 -24 5 -24 38 0 33 4 39 39 55 29 13 46 31 70 77 l32 60 -46 0 c-81
0 -99 24 -56 73 29 34 46 37 87 15 51 -27 128 -48 182 -48 49 0 92 33 92 72 0
29 -27 158 -34 166 -14 13 -46 -35 -57 -84 -19 -83 -30 -86 -91 -25 l-51 52
33 34 c19 19 41 35 50 35 22 0 57 39 71 78 6 18 18 32 26 32 8 0 45 -30 82
-67z"/>
</g>
</svg>
